<svg version="1.1" id="Layer_1" xmlns="http://www.w3.org/2000/svg" xmlns:xlink="http://www.w3.org/1999/xlink" x="0px" y="0px"
	 width="100%" viewBox="0 0 900 420" enable-background="new 0 0 900 420" xml:space="preserve">
<path fill="#000000" opacity="1.000000" stroke="none" 
	d="
M254.000000,0.999998 
	C469.631073,1.000000 685.262146,1.000000 900.946655,1.000000 
	C900.946655,140.941315 900.946655,280.882629 900.946655,421.000000 
	C751.083496,421.000000 601.166870,421.000000 451.250275,421.000000 
	C301.275024,421.000000 151.299774,421.000000 1.162264,421.000000 
	C1.162264,281.000122 1.162264,141.000092 1.162264,1.000000 
	C64.428978,1.000000 127.751854,1.000000 191.822662,1.339215 
	C191.413422,2.119810 190.279297,2.860973 189.095169,2.952027 
	C183.140076,3.409950 177.064255,3.106586 171.230698,4.168543 
	C158.937134,6.406498 146.724472,9.143476 134.557999,12.012360 
	C115.420776,16.524963 97.297569,23.636570 81.135963,34.995945 
	C68.276344,44.034492 58.333076,55.250935 56.570320,72.148720 
	C56.133904,72.858620 56.033470,73.353668 56.033352,73.848724 
	C56.012264,162.087448 55.994507,250.326187 56.024902,338.564911 
	C56.025307,339.741608 56.638756,340.918121 56.956436,342.510925 
	C57.533524,353.270233 62.703682,361.551147 69.392616,368.831421 
	C82.830078,383.456879 100.406013,391.513306 118.673988,397.900085 
	C137.016739,404.312988 155.928284,408.580109 175.407242,410.078491 
	C189.985092,411.199829 204.524338,413.599579 219.099426,413.762512 
	C233.704865,413.925781 248.358749,412.292816 262.943726,410.934998 
	C274.337067,409.874329 285.857544,408.892212 296.959930,406.316528 
	C311.017700,403.055176 324.892456,398.733368 338.511230,393.921112 
	C354.779266,388.172760 369.273468,379.238129 380.544617,365.856598 
	C386.543976,358.733948 390.408203,350.549622 390.924500,340.565613 
	C390.999176,274.525970 391.016266,208.954697 390.999268,143.383423 
	C390.993103,119.589020 390.905640,95.794624 390.914612,71.603470 
	C389.251984,60.165646 383.931091,51.012791 375.915710,43.448967 
	C362.531433,30.818733 346.493622,22.670660 329.182281,17.030382 
	C315.819397,12.676572 302.527435,8.010607 288.292267,6.864932 
	C277.291107,5.979541 266.351074,4.319423 255.398758,2.889564 
	C254.859467,2.819160 254.462982,1.654903 254.000000,0.999998 
M844.758179,294.648346 
	C844.838257,283.235413 844.929626,271.822510 844.952515,260.409454 
	C844.953308,259.999847 844.278442,259.588837 843.002808,259.025391 
	C837.674133,259.014404 832.329468,259.253235 827.021667,258.914551 
	C822.658081,258.636139 818.158752,258.229523 814.034729,256.901215 
	C804.026428,253.677628 802.079529,244.954895 800.970886,235.049164 
	C800.925659,199.360107 800.880432,163.671066 800.531189,127.176193 
	C789.037476,127.169472 777.543701,127.162750 765.187256,127.338104 
	C765.121094,127.829681 764.997009,128.321243 764.996948,128.812820 
	C764.988220,171.199142 764.983093,213.585449 765.025146,255.971741 
	C765.026123,256.995148 765.560608,258.018005 765.977295,259.913208 
	C766.096436,262.215576 765.736145,264.670441 766.411987,266.795776 
	C771.091980,281.511566 779.524536,292.420471 796.882263,294.999969 
	C812.548645,294.940796 828.215027,294.881653 844.758179,294.648346 
M557.648315,127.249390 
	C538.412842,127.216980 519.177368,127.184578 499.135742,127.062508 
	C492.890900,128.700287 486.545563,130.032333 480.423676,132.044281 
	C470.080353,135.443558 461.510742,145.954559 460.986053,154.966568 
	C460.332886,166.184891 462.296509,176.868439 467.431732,186.867065 
	C476.012360,203.574127 490.202728,215.172974 504.084778,227.110214 
	C511.920166,233.847916 519.629089,240.826447 526.640686,248.395248 
	C531.287781,253.411606 529.650757,257.883057 522.919556,259.789978 
	C517.175598,261.417175 511.160370,262.443329 505.204132,262.857086 
	C499.985840,263.219574 494.686005,262.176605 489.416351,262.083771 
	C480.709747,261.930420 471.998474,262.042114 463.166718,262.042114 
	C463.166718,272.301056 463.166718,283.101990 463.415222,294.746033 
	C481.617981,294.778717 499.820740,294.811432 518.852234,294.970032 
	C529.590942,293.864014 539.535889,290.635132 548.194214,283.979187 
	C564.600769,271.366791 567.532288,256.405914 562.772034,240.117645 
	C557.782043,223.043549 544.237427,211.917694 531.069824,200.969650 
	C520.910156,192.522552 510.570343,184.291672 500.433441,175.817780 
	C497.839661,173.649445 495.095184,171.349258 496.386536,167.056747 
	C497.700806,162.687897 501.129730,161.130875 504.893097,160.046387 
	C517.558899,156.396408 530.552002,158.393341 543.403931,158.113449 
	C547.905212,158.015427 552.427490,158.882233 557.048462,159.318680 
	C557.383057,156.628571 557.608826,154.813446 557.976807,152.067673 
	C557.924805,144.082535 557.872864,136.097382 557.648315,127.249390 
M653.032410,239.948715 
	C653.079285,265.961609 653.126099,291.974487 653.457886,318.805298 
	C663.274902,318.864960 673.091980,318.943146 682.908997,318.941986 
	C683.550903,318.941925 684.192749,318.334106 684.971313,317.079681 
	C684.971313,310.927979 684.971313,304.776245 684.971313,298.580841 
	C686.244873,298.104462 687.263611,297.614349 688.337341,297.338196 
	C703.408752,293.461548 716.085022,285.911133 726.537903,274.166260 
	C739.457031,259.650452 747.188538,243.299316 749.262451,223.766327 
	C750.610352,211.071152 749.589600,198.729721 746.603210,186.700623 
	C743.720703,175.089752 738.533142,164.286957 730.581665,154.806686 
	C721.557251,144.047226 711.217773,135.625519 697.897522,130.896500 
	C683.449768,125.767212 668.797180,124.162201 653.471313,125.846581 
	C635.024597,127.873955 619.122742,134.900864 605.915100,147.704498 
	C593.691772,159.553955 585.403992,173.650116 581.539673,190.559341 
	C578.652771,203.191269 577.418335,215.894211 580.361389,228.232849 
	C588.292603,261.484314 609.372803,283.296570 641.734192,295.026306 
	C641.838440,293.264740 641.942017,291.825409 642.005737,290.384277 
	C642.341309,282.787109 643.013306,275.182037 642.851135,267.595062 
	C642.768616,263.734741 642.287109,258.996765 640.036560,256.256409 
	C635.570007,250.817627 629.133301,247.001984 624.636780,241.581467 
	C617.657104,233.167374 614.434631,222.761322 615.208923,211.987244 
	C616.234375,197.717941 621.276001,185.004715 631.252502,173.916748 
	C644.765503,158.898392 666.683105,152.413803 683.784546,161.574127 
	C702.657776,171.683502 712.217407,188.641281 713.849792,209.718857 
	C715.021484,224.847778 709.668335,238.304001 700.303345,250.034866 
	C695.984619,255.444702 690.152649,258.916931 682.999329,260.470154 
	C682.999329,258.060425 683.082153,256.060059 682.983093,254.068726 
	C682.732544,249.029968 682.400330,243.995285 681.610718,238.233231 
	C672.913452,238.158081 664.216125,238.056473 655.518860,238.052826 
	C654.734741,238.052490 653.950378,238.684418 653.032410,239.948715 
z"/>
<path fill="#DB7634" opacity="1.000000" stroke="none" 
	d="
M390.853455,341.034027 
	C390.408203,350.549622 386.543976,358.733948 380.544617,365.856598 
	C369.273468,379.238129 354.779266,388.172760 338.511230,393.921112 
	C324.892456,398.733368 311.017700,403.055176 296.959930,406.316528 
	C285.857544,408.892212 274.337067,409.874329 262.943726,410.934998 
	C248.358749,412.292816 233.704865,413.925781 219.099426,413.762512 
	C204.524338,413.599579 189.985092,411.199829 175.407242,410.078491 
	C155.928284,408.580109 137.016739,404.312988 118.673988,397.900085 
	C100.406013,391.513306 82.830078,383.456879 69.392616,368.831421 
	C62.703682,361.551147 57.533524,353.270233 57.007225,342.038940 
	C57.029484,251.411758 56.991314,161.672806 56.953140,71.933868 
	C58.333076,55.250935 68.276344,44.034492 81.135963,34.995945 
	C97.297569,23.636570 115.420776,16.524963 134.557999,12.012360 
	C146.724472,9.143476 158.937134,6.406498 171.230698,4.168543 
	C177.064255,3.106586 183.140076,3.409950 189.095169,2.952027 
	C190.279297,2.860973 191.413422,2.119810 192.285309,1.339215 
	C212.354233,1.000000 232.708450,1.000000 253.531342,0.999998 
	C254.462982,1.654903 254.859467,2.819160 255.398758,2.889564 
	C266.351074,4.319423 277.291107,5.979541 288.292267,6.864932 
	C302.527435,8.010607 315.819397,12.676572 329.182281,17.030382 
	C346.493622,22.670660 362.531433,30.818733 375.915710,43.448967 
	C383.931091,51.012791 389.251984,60.165646 390.692810,71.953606 
	C390.268158,74.179596 389.999207,75.658676 389.999023,77.137779 
	C389.988098,163.163330 389.993927,249.188889 390.043915,335.214417 
	C390.045044,337.154449 390.571838,339.094177 390.853455,341.034027 
M237.863480,299.013397 
	C244.455399,298.672974 251.066467,298.539825 257.633850,297.933472 
	C264.140198,297.332733 270.660614,296.555481 277.070435,295.315643 
	C286.631104,293.466370 296.092987,291.110779 305.609711,289.029236 
	C321.037659,285.654816 335.362366,279.533142 348.359314,270.698364 
	C354.217682,266.716095 360.409576,261.627197 360.786987,253.986893 
	C361.497650,239.600708 360.992004,225.154434 360.992004,209.864944 
	C356.955902,212.156342 353.693939,214.310913 350.189545,215.945801 
	C334.403717,223.310181 318.031616,228.570099 300.936005,232.439453 
	C283.909302,236.293213 266.818695,239.429047 249.548615,239.752029 
	C217.561249,240.350235 185.501083,241.395370 153.827805,234.184479 
	C136.149551,230.159744 118.676399,225.934631 102.275032,218.057693 
	C97.371246,215.702606 92.550163,213.175247 87.001015,210.379044 
	C87.001015,223.074341 87.733948,234.919006 86.802025,246.631195 
	C85.800629,259.216675 92.294632,266.927277 101.694092,272.787445 
	C117.656128,282.739166 135.418427,287.999451 153.702423,292.181335 
	C172.004028,296.367340 190.573517,297.400238 209.816452,299.550598 
	C218.857025,299.423431 227.897598,299.296234 237.863480,299.013397 
M205.031326,150.968307 
	C164.051193,148.356552 123.961052,142.217682 87.002106,120.780525 
	C87.002106,122.900124 87.002060,124.478958 87.002113,126.057793 
	C87.002510,137.882751 87.143341,149.709961 86.953728,161.531860 
	C86.828362,169.347626 90.444267,175.141235 96.283104,179.613983 
	C110.533226,190.530060 127.056145,197.042374 144.263901,200.731628 
	C163.806412,204.921448 183.712555,208.226974 203.622742,209.652252 
	C222.001205,210.967880 240.669952,210.185440 259.068665,208.637299 
	C273.567780,207.417328 287.948334,204.062363 302.203217,200.861557 
	C317.646820,197.393829 332.458405,191.996140 345.747314,183.040070 
	C352.658813,178.382065 360.097595,173.333405 360.695312,164.584000 
	C361.676086,150.227539 360.960938,135.755234 360.960938,120.701378 
	C359.214050,121.533302 358.050903,122.015167 356.959717,122.625656 
	C355.677246,123.343155 354.506409,124.267853 353.202728,124.938576 
	C335.742371,133.921799 317.322052,140.230316 298.071106,143.914627 
	C288.446014,145.756699 278.674957,146.925903 268.926605,148.010086 
	C258.326294,149.189041 247.675720,149.916168 236.378372,150.331421 
	C228.946564,150.222351 221.514542,150.029037 214.083069,150.048325 
	C211.355606,150.055405 208.629456,150.565643 205.031326,150.968307 
M154.798203,38.118927 
	C154.031891,38.407471 153.287262,38.792423 152.496078,38.970455 
	C132.932205,43.372807 113.833672,49.070690 97.527390,61.308147 
	C85.847137,70.073875 84.105743,79.616570 94.424286,88.747719 
	C102.859291,96.212051 112.972214,101.186523 123.582466,104.986282 
	C138.953949,110.491142 154.609238,114.827576 170.930328,116.474335 
	C185.101776,117.904213 199.232407,120.334221 213.427979,120.760544 
	C227.424026,121.180870 241.492462,119.839943 255.503342,118.890793 
	C264.963379,118.249916 274.547607,117.735222 283.773315,115.753601 
	C296.745819,112.967201 309.591461,109.341927 322.203308,105.198578 
	C333.552460,101.470055 344.352386,96.152023 353.316132,88.008583 
	C362.510590,79.655563 362.633453,73.052536 353.960358,64.654900 
	C342.168884,53.237949 326.927856,47.725155 311.586914,43.291828 
	C299.898895,39.914146 287.775116,37.764160 275.705200,36.058403 
	C260.112640,33.854828 244.412292,31.957672 228.697968,31.226572 
	C217.555161,30.708162 206.278137,31.993439 195.123108,33.099735 
	C181.931198,34.408039 168.806107,36.389954 154.798203,38.118927 
M104.965088,308.452209 
	C99.129494,305.685272 93.293900,302.918335 87.000763,299.934448 
	C87.000763,310.168396 87.631416,320.018402 86.841850,329.753235 
	C85.844688,342.047760 91.406616,350.209473 101.323120,355.949738 
	C108.317451,359.998474 115.464462,364.059143 123.020828,366.796112 
	C134.109207,370.812317 145.456558,374.512451 157.002579,376.759216 
	C169.688400,379.227783 182.708771,380.061401 195.613495,381.291656 
	C204.510101,382.139801 213.462982,382.960602 222.381470,382.871094 
	C233.083511,382.763702 243.767426,381.383331 254.474106,381.078979 
	C271.916229,380.583191 288.892456,377.322205 305.651428,372.887543 
	C321.791534,368.616638 337.366547,362.731903 350.766449,352.469513 
	C357.197357,347.544373 361.518799,341.190460 361.101135,332.265442 
	C360.657593,322.786621 361.013916,313.270905 360.984589,303.771423 
	C360.980835,302.551514 360.758789,301.332275 360.547760,299.204102 
	C355.863525,301.943665 352.072601,304.789429 347.828827,306.533203 
	C330.051025,313.838074 312.150330,320.770050 292.838837,323.141693 
	C275.785492,325.236023 258.835968,328.499573 241.731201,329.746826 
	C228.563492,330.707031 215.189529,329.837708 201.973724,328.872375 
	C187.254761,327.797180 172.590881,325.851410 157.939621,323.995575 
	C139.729401,321.688904 122.407700,316.140961 104.965088,308.452209 
z"/>
<path fill="#DB7634" opacity="1.000000" stroke="none" 
	d="
M653.172974,317.987366 
	C653.126099,291.974487 653.079285,265.961609 653.557068,239.477051 
	C663.421448,238.989929 672.761108,238.974457 682.100830,238.958984 
	C682.400330,243.995285 682.732544,249.029968 682.983093,254.068726 
	C683.082153,256.060059 682.999329,258.060425 682.999329,260.470154 
	C690.152649,258.916931 695.984619,255.444702 700.303345,250.034866 
	C709.668335,238.304001 715.021484,224.847778 713.849792,209.718857 
	C712.217407,188.641281 702.657776,171.683502 683.784546,161.574127 
	C666.683105,152.413803 644.765503,158.898392 631.252502,173.916748 
	C621.276001,185.004715 616.234375,197.717941 615.208923,211.987244 
	C614.434631,222.761322 617.657104,233.167374 624.636780,241.581467 
	C629.133301,247.001984 635.570007,250.817627 640.036560,256.256409 
	C642.287109,258.996765 642.768616,263.734741 642.851135,267.595062 
	C643.013306,275.182037 642.341309,282.787109 642.005737,290.384277 
	C641.942017,291.825409 641.838440,293.264740 641.734192,295.026306 
	C609.372803,283.296570 588.292603,261.484314 580.361389,228.232849 
	C577.418335,215.894211 578.652771,203.191269 581.539673,190.559341 
	C585.403992,173.650116 593.691772,159.553955 605.915100,147.704498 
	C619.122742,134.900864 635.024597,127.873955 653.471313,125.846581 
	C668.797180,124.162201 683.449768,125.767212 697.897522,130.896500 
	C711.217773,135.625519 721.557251,144.047226 730.581665,154.806686 
	C738.533142,164.286957 743.720703,175.089752 746.603210,186.700623 
	C749.589600,198.729721 750.610352,211.071152 749.262451,223.766327 
	C747.188538,243.299316 739.457031,259.650452 726.537903,274.166260 
	C716.085022,285.911133 703.408752,293.461548 688.337341,297.338196 
	C687.263611,297.614349 686.244873,298.104462 684.971313,298.580841 
	C684.971313,304.776245 684.971313,310.927979 684.444946,317.543823 
	C673.670105,318.001099 663.421509,317.994232 653.172974,317.987366 
z"/>
<path fill="#DB7634" opacity="1.000000" stroke="none" 
	d="
M557.834595,152.998322 
	C557.608826,154.813446 557.383057,156.628571 557.048462,159.318680 
	C552.427490,158.882233 547.905212,158.015427 543.403931,158.113449 
	C530.552002,158.393341 517.558899,156.396408 504.893097,160.046387 
	C501.129730,161.130875 497.700806,162.687897 496.386536,167.056747 
	C495.095184,171.349258 497.839661,173.649445 500.433441,175.817780 
	C510.570343,184.291672 520.910156,192.522552 531.069824,200.969650 
	C544.237427,211.917694 557.782043,223.043549 562.772034,240.117645 
	C567.532288,256.405914 564.600769,271.366791 548.194214,283.979187 
	C539.535889,290.635132 529.590942,293.864014 518.084839,294.687103 
	C515.343628,294.270721 513.370239,294.028839 511.395935,294.020996 
	C495.319641,293.956909 479.243134,293.936554 463.166718,293.902893 
	C463.166718,283.101990 463.166718,272.301056 463.166718,262.042114 
	C471.998474,262.042114 480.709747,261.930420 489.416351,262.083771 
	C494.686005,262.176605 499.985840,263.219574 505.204132,262.857086 
	C511.160370,262.443329 517.175598,261.417175 522.919556,259.789978 
	C529.650757,257.883057 531.287781,253.411606 526.640686,248.395248 
	C519.629089,240.826447 511.920166,233.847916 504.084778,227.110214 
	C490.202728,215.172974 476.012360,203.574127 467.431732,186.867065 
	C462.296509,176.868439 460.332886,166.184891 460.986053,154.966568 
	C461.510742,145.954559 470.080353,135.443558 480.423676,132.044281 
	C486.545563,130.032333 492.890900,128.700287 499.875702,127.362030 
	C502.263794,127.770294 503.911591,127.967606 505.560120,127.974106 
	C522.683533,128.041626 539.807129,128.078415 556.952209,128.581100 
	C557.260681,137.025070 557.547607,145.011703 557.834595,152.998322 
z"/>
<path fill="#DB7533" opacity="1.000000" stroke="none" 
	d="
M800.836487,235.975113 
	C802.079529,244.954895 804.026428,253.677628 814.034729,256.901215 
	C818.158752,258.229523 822.658081,258.636139 827.021667,258.914551 
	C832.329468,259.253235 837.674133,259.014404 843.467773,259.557922 
	C843.892273,271.338440 843.851868,282.586487 843.355957,293.872864 
	C828.817505,293.948181 814.734497,293.960083 800.652039,294.057343 
	C799.081360,294.068176 797.514038,294.564240 795.945129,294.835266 
	C779.524536,292.420471 771.091980,281.511566 766.411987,266.795776 
	C765.736145,264.670441 766.096436,262.215576 765.989197,259.011902 
	C765.996582,252.299622 765.980347,246.488586 765.989502,240.677597 
	C766.048462,203.156937 766.113098,165.636292 766.631470,128.084167 
	C778.045044,128.078918 789.003052,128.105118 799.969849,128.591675 
	C799.985779,162.585434 799.977844,196.118851 800.035828,229.652161 
	C800.039429,231.760269 800.557617,233.867477 800.836487,235.975113 
z"/>
<path fill="#F7F7F7" opacity="1.000000" stroke="none" 
	d="
M56.570320,72.148720 
	C56.991314,161.672806 57.029484,251.411758 57.016869,341.622711 
	C56.638756,340.918121 56.025307,339.741608 56.024902,338.564911 
	C55.994507,250.326187 56.012264,162.087448 56.033352,73.848724 
	C56.033470,73.353668 56.133904,72.858620 56.570320,72.148720 
z"/>
<path fill="#E18C56" opacity="1.000000" stroke="none" 
	d="
M390.924500,340.565613 
	C390.571838,339.094177 390.045044,337.154449 390.043915,335.214417 
	C389.993927,249.188889 389.988098,163.163330 389.999023,77.137779 
	C389.999207,75.658676 390.268158,74.179596 390.633484,72.350372 
	C390.905640,95.794624 390.993103,119.589020 390.999268,143.383423 
	C391.016266,208.954697 390.999176,274.525970 390.924500,340.565613 
z"/>
<path fill="#F0D0BE" opacity="1.000000" stroke="none" 
	d="
M766.175903,128.115631 
	C766.113098,165.636292 766.048462,203.156937 765.989502,240.677597 
	C765.980347,246.488586 765.996582,252.299622 765.923706,258.575867 
	C765.560608,258.018005 765.026123,256.995148 765.025146,255.971741 
	C764.983093,213.585449 764.988220,171.199142 764.996948,128.812820 
	C764.997009,128.321243 765.121094,127.829681 765.640015,127.488174 
	C766.092773,127.638252 766.175903,128.115631 766.175903,128.115631 
z"/>
<path fill="#DF7F42" opacity="1.000000" stroke="none" 
	d="
M800.903687,235.512146 
	C800.557617,233.867477 800.039429,231.760269 800.035828,229.652161 
	C799.977844,196.118851 799.985779,162.585434 800.187134,128.545746 
	C800.395691,128.039474 800.835205,127.982018 800.835205,127.982018 
	C800.880432,163.671066 800.925659,199.360107 800.903687,235.512146 
z"/>
<path fill="#E19B72" opacity="1.000000" stroke="none" 
	d="
M556.930664,128.123749 
	C539.807129,128.078415 522.683533,128.041626 505.560120,127.974106 
	C503.911591,127.967606 502.263794,127.770294 500.278809,127.406868 
	C519.177368,127.184578 538.412842,127.216980 557.511963,127.675140 
	C557.375671,128.100891 556.930664,128.123749 556.930664,128.123749 
z"/>
<path fill="#DE8F5E" opacity="1.000000" stroke="none" 
	d="
M463.290955,294.324463 
	C479.243134,293.936554 495.319641,293.956909 511.395935,294.020996 
	C513.370239,294.028839 515.343628,294.270721 517.670471,294.624146 
	C499.820740,294.811432 481.617981,294.778717 463.290955,294.324463 
z"/>
<path fill="#EBC0A8" opacity="1.000000" stroke="none" 
	d="
M796.413696,294.917603 
	C797.514038,294.564240 799.081360,294.068176 800.652039,294.057343 
	C814.734497,293.960083 828.817505,293.948181 843.397461,294.118164 
	C843.894470,294.325104 843.881409,294.822479 843.881409,294.822479 
	C828.215027,294.881653 812.548645,294.940796 796.413696,294.917603 
z"/>
<path fill="#F4F3F4" opacity="1.000000" stroke="none" 
	d="
M844.319824,294.735413 
	C843.881409,294.822479 843.894470,294.325104 843.852966,294.079803 
	C843.851868,282.586487 843.892273,271.338440 843.925598,259.634460 
	C844.278442,259.588837 844.953308,259.999847 844.952515,260.409454 
	C844.929626,271.822510 844.838257,283.235413 844.319824,294.735413 
z"/>
<path fill="#E29B72" opacity="1.000000" stroke="none" 
	d="
M800.683228,127.579102 
	C800.835205,127.982018 800.395691,128.039474 800.178406,128.085403 
	C789.003052,128.105118 778.045044,128.078918 766.631470,128.084167 
	C766.175903,128.115631 766.092773,127.638252 766.071411,127.397141 
	C777.543701,127.162750 789.037476,127.169472 800.683228,127.579102 
z"/>
<path fill="#E69C6B" opacity="1.000000" stroke="none" 
	d="
M653.315430,318.396362 
	C663.421509,317.994232 673.670105,318.001099 684.376587,318.008453 
	C684.192749,318.334106 683.550903,318.941925 682.908997,318.941986 
	C673.091980,318.943146 663.274902,318.864960 653.315430,318.396362 
z"/>
<path fill="#E08A54" opacity="1.000000" stroke="none" 
	d="
M681.855774,238.596100 
	C672.761108,238.974457 663.421448,238.989929 653.623901,239.014069 
	C653.950378,238.684418 654.734741,238.052490 655.518860,238.052826 
	C664.216125,238.056473 672.913452,238.158081 681.855774,238.596100 
z"/>
<path fill="#E3864A" opacity="1.000000" stroke="none" 
	d="
M556.952209,128.581100 
	C556.930664,128.123749 557.375671,128.100891 557.598267,128.106567 
	C557.872864,136.097382 557.924805,144.082535 557.905701,152.532990 
	C557.547607,145.011703 557.260681,137.025070 556.952209,128.581100 
z"/>
<path fill="#000000" opacity="1.000000" stroke="none" 
	d="
M155.225128,38.099403 
	C168.806107,36.389954 181.931198,34.408039 195.123108,33.099735 
	C206.278137,31.993439 217.555161,30.708162 228.697968,31.226572 
	C244.412292,31.957672 260.112640,33.854828 275.705200,36.058403 
	C287.775116,37.764160 299.898895,39.914146 311.586914,43.291828 
	C326.927856,47.725155 342.168884,53.237949 353.960358,64.654900 
	C362.633453,73.052536 362.510590,79.655563 353.316132,88.008583 
	C344.352386,96.152023 333.552460,101.470055 322.203308,105.198578 
	C309.591461,109.341927 296.745819,112.967201 283.773315,115.753601 
	C274.547607,117.735222 264.963379,118.249916 255.503342,118.890793 
	C241.492462,119.839943 227.424026,121.180870 213.427979,120.760544 
	C199.232407,120.334221 185.101776,117.904213 170.930328,116.474335 
	C154.609238,114.827576 138.953949,110.491142 123.582466,104.986282 
	C112.972214,101.186523 102.859291,96.212051 94.424286,88.747719 
	C84.105743,79.616570 85.847137,70.073875 97.527390,61.308147 
	C113.833672,49.070690 132.932205,43.372807 152.496078,38.970455 
	C153.287262,38.792423 154.031891,38.407471 155.225128,38.099403 
z"/>
<path fill="#000000" opacity="1.000000" stroke="none" 
	d="
M237.047058,150.840302 
	C247.675720,149.916168 258.326294,149.189041 268.926605,148.010086 
	C278.674957,146.925903 288.446014,145.756699 298.071106,143.914627 
	C317.322052,140.230316 335.742371,133.921799 353.202728,124.938576 
	C354.506409,124.267853 355.677246,123.343155 356.959717,122.625656 
	C358.050903,122.015167 359.214050,121.533302 360.960938,120.701378 
	C360.960938,135.755234 361.676086,150.227539 360.695312,164.584000 
	C360.097595,173.333405 352.658813,178.382065 345.747314,183.040070 
	C332.458405,191.996140 317.646820,197.393829 302.203217,200.861557 
	C287.948334,204.062363 273.567780,207.417328 259.068665,208.637299 
	C240.669952,210.185440 222.001205,210.967880 203.622742,209.652252 
	C183.712555,208.226974 163.806412,204.921448 144.263901,200.731628 
	C127.056145,197.042374 110.533226,190.530060 96.283104,179.613983 
	C90.444267,175.141235 86.828362,169.347626 86.953728,161.531860 
	C87.143341,149.709961 87.002510,137.882751 87.002113,126.057793 
	C87.002060,124.478958 87.002106,122.900124 87.002106,120.780525 
	C123.961052,142.217682 164.051193,148.356552 205.939423,150.996307 
	C216.914047,150.962982 226.980545,150.901642 237.047058,150.840302 
z"/>
<path fill="#000000" opacity="1.000000" stroke="none" 
	d="
M209.108521,299.174591 
	C190.573517,297.400238 172.004028,296.367340 153.702423,292.181335 
	C135.418427,287.999451 117.656128,282.739166 101.694092,272.787445 
	C92.294632,266.927277 85.800629,259.216675 86.802025,246.631195 
	C87.733948,234.919006 87.001015,223.074341 87.001015,210.379044 
	C92.550163,213.175247 97.371246,215.702606 102.275032,218.057693 
	C118.676399,225.934631 136.149551,230.159744 153.827805,234.184479 
	C185.501083,241.395370 217.561249,240.350235 249.548615,239.752029 
	C266.818695,239.429047 283.909302,236.293213 300.936005,232.439453 
	C318.031616,228.570099 334.403717,223.310181 350.189545,215.945801 
	C353.693939,214.310913 356.955902,212.156342 360.992004,209.864944 
	C360.992004,225.154434 361.497650,239.600708 360.786987,253.986893 
	C360.409576,261.627197 354.217682,266.716095 348.359314,270.698364 
	C335.362366,279.533142 321.037659,285.654816 305.609711,289.029236 
	C296.092987,291.110779 286.631104,293.466370 277.070435,295.315643 
	C270.660614,296.555481 264.140198,297.332733 257.633850,297.933472 
	C251.066467,298.539825 244.455399,298.672974 236.940872,299.028778 
	C227.048355,299.087646 218.078430,299.131134 209.108521,299.174591 
z"/>
<path fill="#000000" opacity="1.000000" stroke="none" 
	d="
M105.278793,308.682037 
	C122.407700,316.140961 139.729401,321.688904 157.939621,323.995575 
	C172.590881,325.851410 187.254761,327.797180 201.973724,328.872375 
	C215.189529,329.837708 228.563492,330.707031 241.731201,329.746826 
	C258.835968,328.499573 275.785492,325.236023 292.838837,323.141693 
	C312.150330,320.770050 330.051025,313.838074 347.828827,306.533203 
	C352.072601,304.789429 355.863525,301.943665 360.547760,299.204102 
	C360.758789,301.332275 360.980835,302.551514 360.984589,303.771423 
	C361.013916,313.270905 360.657593,322.786621 361.101135,332.265442 
	C361.518799,341.190460 357.197357,347.544373 350.766449,352.469513 
	C337.366547,362.731903 321.791534,368.616638 305.651428,372.887543 
	C288.892456,377.322205 271.916229,380.583191 254.474106,381.078979 
	C243.767426,381.383331 233.083511,382.763702 222.381470,382.871094 
	C213.462982,382.960602 204.510101,382.139801 195.613495,381.291656 
	C182.708771,380.061401 169.688400,379.227783 157.002579,376.759216 
	C145.456558,374.512451 134.109207,370.812317 123.020828,366.796112 
	C115.464462,364.059143 108.317451,359.998474 101.323120,355.949738 
	C91.406616,350.209473 85.844688,342.047760 86.841850,329.753235 
	C87.631416,320.018402 87.000763,310.168396 87.000763,299.934448 
	C93.293900,302.918335 99.129494,305.685272 105.278793,308.682037 
z"/>
<path fill="#E4A47B" opacity="1.000000" stroke="none" 
	d="
M236.712708,150.585846 
	C226.980545,150.901642 216.914047,150.962982 206.375122,150.935333 
	C208.629456,150.565643 211.355606,150.055405 214.083069,150.048325 
	C221.514542,150.029037 228.946564,150.222351 236.712708,150.585846 
z"/>
<path fill="#E08E59" opacity="1.000000" stroke="none" 
	d="
M209.462494,299.362610 
	C218.078430,299.131134 227.048355,299.087646 236.478210,299.106598 
	C227.897598,299.296234 218.857025,299.423431 209.462494,299.362610 
z"/>
</svg>